<?xml version="1.0" encoding="utf-8"?>
<!-- Generator: Adobe Illustrator 17.1.0, SVG Export Plug-In . SVG Version: 6.00 Build 0)  -->
<!DOCTYPE svg PUBLIC "-//W3C//DTD SVG 1.1//EN" "http://www.w3.org/Graphics/SVG/1.1/DTD/svg11.dtd">
<svg version="1.1" id="Layer_1" xmlns="http://www.w3.org/2000/svg" xmlns:xlink="http://www.w3.org/1999/xlink" x="0px" y="0px"
	 viewBox="0 0 600 600" enable-background="new 0 0 600 600" xml:space="preserve">
<g>
	<g>
		<path fill="#1B75BB" d="M300.3,319.8c87.1,0,161.9,52.5,194.6,127.6c31.2-41,49.8-92.2,49.8-147.8c0-135-109.4-244.4-244.4-244.4
			C165.4,55.3,56,164.7,56,299.7c0,55.5,18.6,106.7,49.8,147.8C138.4,372.3,213.2,319.8,300.3,319.8z M300.3,82.2
			c62.3,0,112.8,50.5,112.8,112.8c0,62.3-50.5,112.8-112.8,112.8c-62.3,0-112.8-50.5-112.8-112.8C187.6,132.7,238,82.2,300.3,82.2z"
			/>
	</g>
	<g>
		<circle fill="#FFFFFF" cx="300.3" cy="194.9" r="112.8"/>
	</g>
	<g>
		<path fill="#FFFFFF" d="M300.3,544c79.4,0,150-37.9,194.6-96.6c-32.7-75.1-107.5-127.6-194.6-127.6
			c-87.1,0-161.9,52.5-194.6,127.6C150.4,506.1,220.9,544,300.3,544z"/>
	</g>
</g>
<g>
	<path fill="#1B75BB" d="M300.3,566.9C153,566.9,33.1,447,33.1,299.7C33.1,152.3,153,32.5,300.3,32.5
		c147.3,0,267.2,119.9,267.2,267.2C567.5,447,447.7,566.9,300.3,566.9z M300.3,56.6c-134,0-243,109-243,243c0,134,109,243,243,243
		s243-109,243-243C543.4,165.7,434.3,56.6,300.3,56.6z"/>
</g>
</svg>
