<?xml version="1.0" encoding="utf-8"?>
<!-- Generator: Adobe Illustrator 17.1.0, SVG Export Plug-In . SVG Version: 6.00 Build 0)  -->
<!DOCTYPE svg PUBLIC "-//W3C//DTD SVG 1.1//EN" "http://www.w3.org/Graphics/SVG/1.1/DTD/svg11.dtd">
<svg version="1.1" id="Layer_1" xmlns="http://www.w3.org/2000/svg" xmlns:xlink="http://www.w3.org/1999/xlink" x="0px" y="0px"
	 viewBox="0 0 1000 205.6" enable-background="new 0 0 1000 205.6" xml:space="preserve">
<g>
	<path fill="#1B75BB" d="M117,171.5c-37.6,0-68.3-30.6-68.3-68.3C48.8,65.6,79.4,35,117,35s68.3,30.6,68.3,68.3
		C185.3,140.9,154.6,171.5,117,171.5z M117,49.1c-29.8,0-54.1,24.3-54.1,54.1s24.3,54.1,54.1,54.1s54.1-24.3,54.1-54.1
		S146.9,49.1,117,49.1z"/>
</g>
<g>
	<polygon fill="#1B75BB" points="98.7,42 117,10.3 135.3,42 	"/>
</g>
<g>
	<polygon fill="#1B75BB" points="135.3,164.4 117,196.1 98.7,164.4 	"/>
</g>
<g>
	<polygon fill="#1B75BB" points="178.2,84.9 209.9,103.2 178.2,121.5 	"/>
</g>
<g>
	<polygon fill="#1B75BB" points="55.8,121.5 24.1,103.2 55.8,84.9 	"/>
</g>
<g>
	<g>
		<path fill="#1B75BB" d="M291.1,75.8v54.4h-20.5l-24.3-36.3v24h7.3v12.3h-29.3v-12.3h5.6V75.8h-5.5V63.5h27.4l23.4,35V75.8h-6.5
			V63.5h28.7v12.3H291.1z"/>
	</g>
	<g>
		<path fill="#1B75BB" d="M147.2,82.8v54.4h-20.5l-24.3-36.3v24h7.3v12.3H80.5v-12.3h5.6V82.8h-5.5V70.5h27.4l23.4,35V82.8h-6.5
			V70.5h28.7v12.3H147.2z"/>
	</g>
	<g>
		<path fill="#1B75BB" d="M332.9,130.1v-12.5h9.1l-2-6.5h-19.6l-2,6.5h7.4v12.5h-30.3v-12.5h6.5l12.9-41.9H311V63.5h36.6l16.9,54.2
			h6.7v12.5H332.9z M336.5,99.7l-6.3-20.6L324,99.7H336.5z"/>
	</g>
	<g>
		<path fill="#1B75BB" d="M375,106.1h17.7c0,8,8,9.3,12,9.5c3.3,0,8.1-0.8,8.1-4.8c0-7.4-36.6-4.3-36.6-28.6
			c0-14.1,13.4-20.5,22.7-20.5c8,0,16.1,2.6,19.9,9.7l1-8h16.4v23.9H419c0-7.1-5.5-11.1-12.2-11.1c-2.8,0-6.6,1.7-6.6,5.1
			c0,9.8,37.8,7.5,37.8,30c0,14.9-13.9,20.2-25.3,20.2c-9.6,0-16.3-4.5-19.9-8.8l-1,7.3H375V106.1z"/>
	</g>
	<g>
		<path fill="#1B75BB" d="M471.7,63.5V76h-5.9v14.4H484V76h-5.6V63.5h31V76h-5.5v41.5h5.5v12.6h-31v-12.6h5.6v-14.4h-18.1v14.4h5.9
			v12.6h-30.9v-12.6h5.2V76h-5.2V63.5H471.7z"/>
	</g>
	<g>
		<path fill="#1B75BB" d="M513.2,113h12.8c0,5.1,7.3,6.4,10.1,6.4c1.9,0,4.2-0.6,4.2-3.2c0-2.9-7.2-3.3-14-5.7
			c-6.5-2.3-12.7-6.3-12.7-15.3c0-9.7,10-13.8,16.8-13.8c6.5,0,12.2,3.3,14.2,7.4l0.8-6.3H557v17.2h-12.4c0-4-5-7.3-9.7-7.3
			c-2,0-3.7,1-3.7,3.4c0,2.7,5.6,3.8,11.7,5.9c7.3,2.5,15.4,5.2,15.4,15.3c0,9-8.5,14.3-17.7,14.3c-6.9,0-12.3-3.3-14.6-7l-0.9,5.8
			h-11.9V113z"/>
	</g>
	<g>
		<path fill="#1B75BB" d="M564.7,137.1v-42h-4V82.4h21.8l1.6,3.3c1.8-1.3,5.8-4.1,11.5-4.1c14.9,0,22.5,11.4,22.5,25
			c0,15.2-9.4,24.5-21.8,24.5c-7.9,0-11.7-3.1-12.4-3.7v9.6h5.2v12.5h-28.5v-12.5H564.7z M590.8,95.1c-3.7,0-7.2,4.7-6.8,12.2
			c0,6.5,3.2,11.4,6.9,11.4c4,0,6.8-4.7,6.8-11.9C597.7,101.1,595,95.1,590.8,95.1z"/>
	</g>
	<g>
		<path fill="#1B75BB" d="M619.6,130.1v-12.5h4.1V70.9h-4V58.6h22.1v59.1h5.6v12.5H619.6z"/>
	</g>
	<g>
		<path fill="#1B75BB" d="M648.1,106.1c0.1-15.9,13-24.8,26.1-24.8c15.1,0.2,26.2,9.3,26.5,25.2c0.2,15.8-11.5,24.9-26,24.9
			C661,131.4,647.9,123,648.1,106.1z M681.2,106.5c0-7.2-2.5-12.7-7-12.8c-3.7,0-6.6,5.5-6.6,12.5c0,7.8,3.1,13,7.1,13
			C678.8,119.2,681.2,113.6,681.2,106.5z"/>
	</g>
	<g>
		<path fill="#1B75BB" d="M704.2,130.1v-12.5h4.2V94.8h-4.1V82.4h17.9l2.9,6.1c2.5-4.6,5-8.5,14.8-8.5v17.2
			c-8.6,0-13.5,2.2-13.5,10.6v9.8h4.8v12.5H704.2z"/>
	</g>
	<g>
		<path fill="#1B75BB" d="M744.7,86.4c3.8-2.3,12-6.8,20.8-6.8c11.4,0,25.9,4.3,25.9,19.7v18.6h5.7v12.2h-20.4l-2.3-4.3
			c-3.5,4.9-9.4,6.1-12.9,6.1c-9.1,0-18.8-4.9-18.8-15.9c0-10.8,9.1-17.6,19.8-17.6c5.6,0,9,2.8,9.4,3.3v-3.3c0-4.3-3.9-5.3-9.1-5.3
			c-5.6,0-10.6,2.4-14.2,4.4L744.7,86.4z M772,112.8c-0.3-0.5-1.6-2.8-5.6-2.8c-3.8,0-5.5,2.1-5.5,5.1c0,2.7,2.2,4.5,5.1,4.5
			s5.2-1.7,6.1-3.1V112.8z"/>
	</g>
	<g>
		<path fill="#1B75BB" d="M805.1,82.4v-8.8l17.6-5.6v14.4h9.1v12.4h-9.1v17c0,3.2-0.7,7.6,3.1,7.6c1.2,0,4.2-0.9,6-1.6V130
			c-2.9,1.1-9.3,1.8-11.5,1.8c-14.3,0-14.8-7.8-15.1-20v-17H800V82.4H805.1z"/>
	</g>
	<g>
		<path fill="#1B75BB" d="M835.5,130.1v-12.5h4V94.8h-4V82.4h22.1v35.2h4.6v12.5H835.5z M848.5,58.8c6.6,0,10.5,5.3,10.5,9.7
			c0,5.2-3.7,9.6-10.5,9.6c-6,0-10.3-5.1-10.3-9.6C838.2,64.1,841.8,58.8,848.5,58.8z"/>
	</g>
	<g>
		<path fill="#1B75BB" d="M863.8,106.1c0.1-15.9,13-24.8,26.1-24.8c15.1,0.2,26.2,9.3,26.5,25.2c0.2,15.8-11.5,24.9-26,24.9
			C876.8,131.4,863.6,123,863.8,106.1z M896.9,106.5c0-7.2-2.5-12.7-7-12.8c-3.7,0-6.6,5.5-6.6,12.5c0,7.8,3.1,13,7.1,13
			C894.5,119.2,896.9,113.6,896.9,106.5z"/>
	</g>
	<g>
		<path fill="#1B75BB" d="M918,130.1v-12.5h4V94.8h-4V82.4h20.3l2.2,5.9c3.2-4.5,7.6-7.6,13.6-7.6c14.8,0,17.3,11,17.3,21v15.9h4.5
			v12.5h-24v-26c0-3.2,0.3-8.9-5.3-8.9c-4.9,0-6,4.8-6,8.9v13.5h6.9v12.5H918z"/>
	</g>
</g>
</svg>
