<?xml version="1.0" encoding="utf-8"?>
<!-- Generator: Adobe Illustrator 17.1.0, SVG Export Plug-In . SVG Version: 6.00 Build 0)  -->
<!DOCTYPE svg PUBLIC "-//W3C//DTD SVG 1.1//EN" "http://www.w3.org/Graphics/SVG/1.1/DTD/svg11.dtd">
<svg version="1.1" id="Layer_1" xmlns="http://www.w3.org/2000/svg" xmlns:xlink="http://www.w3.org/1999/xlink" x="0px" y="0px"
	 viewBox="0 0 600 600" enable-background="new 0 0 600 600" xml:space="preserve">
<rect fill="#1B75BB" width="600" height="600"/>
<path fill="#FFFFFF" d="M554.4,263.5c0,140.4-254.3,327.3-254.3,327.3S45.9,403.9,45.9,263.5S159.7,9.2,300.2,9.2
	S554.4,123.1,554.4,263.5z"/>
<path fill="#0071BC" d="M301,417.2c-86.2,0-156.4-70.2-156.4-156.4c0-86.2,70.2-156.4,156.4-156.4s156.4,70.2,156.4,156.4
	C457.4,347.1,387.2,417.2,301,417.2z M301,136.8c-68.4,0-124.1,55.6-124.1,124.1S232.6,384.9,301,384.9s124.1-55.6,124.1-124.1
	S369.4,136.8,301,136.8z"/>
<polygon fill="#0071BC" points="259.1,120.6 301,47.9 343,120.6 "/>
<polygon fill="#0071BC" points="343,401.1 301,473.7 259.1,401.1 "/>
<polygon fill="#0071BC" points="441.2,218.9 513.9,260.8 441.2,302.8 "/>
<polygon fill="#0071BC" points="160.8,302.8 88.1,260.8 160.8,218.9 "/>
<g>
	<path fill="#0071BC" d="M370.3,213.9v124.6h-47l-55.8-83.3v55.1h16.8v28.2h-67.1v-28.2h12.9v-96.4h-12.7v-28.2h62.7l53.6,80.2v-52
		h-14.9v-28.2h65.8v28.2H370.3z"/>
</g>
</svg>
